<?xml version="1.0" standalone="no"?>
<!DOCTYPE svg PUBLIC "-//W3C//DTD SVG 20010904//EN"
 "http://www.w3.org/TR/2001/REC-SVG-20010904/DTD/svg10.dtd">
<svg version="1.0" xmlns="http://www.w3.org/2000/svg"
 width="1138.000000pt" height="291.000000pt" viewBox="0 0 1138.000000 291.000000"
 preserveAspectRatio="xMidYMid meet">

<g transform="translate(0.000000,291.000000) scale(0.100000,-0.100000)"
fill="#000000" stroke="none">
<path d="M1470 2780 c-85 -13 -146 -44 -210 -108 -126 -126 -191 -330 -220
-687 -8 -104 -14 -133 -29 -148 -18 -19 -21 -18 -134 43 l-116 63 6 47 c16
138 -131 244 -253 182 -48 -24 -69 -47 -89 -95 -18 -43 -19 -68 -4 -119 23
-84 133 -145 213 -118 20 6 39 9 44 6 13 -8 162 -223 162 -234 0 -5 -21 -19
-47 -30 l-46 -20 -23 28 c-112 132 -337 28 -310 -144 23 -145 198 -204 300
-101 l35 34 51 -22 50 -22 -85 -122 c-82 -116 -88 -122 -111 -113 -65 25 -160
-1 -202 -55 -69 -88 -42 -223 55 -271 128 -63 276 37 260 176 l-6 49 113 61
c63 33 117 60 121 60 10 0 -2 -398 -16 -533 -18 -177 -66 -277 -133 -277 -27
0 -66 40 -95 97 -38 75 -106 100 -183 65 -127 -56 -93 -252 50 -292 20 -5 69
-10 107 -10 177 0 303 88 390 273 64 135 100 298 120 544 6 71 10 84 34 107
l28 26 114 -60 114 -60 -3 -63 c-3 -52 0 -68 20 -97 64 -95 184 -114 269 -43
128 108 37 328 -129 310 -26 -2 -54 -7 -62 -10 -11 -5 -39 28 -99 114 -45 66
-81 122 -79 124 2 2 24 13 48 24 l44 20 37 -34 c117 -105 286 -40 297 114 4
51 1 67 -22 105 -30 51 -91 86 -151 86 -48 0 -118 -33 -139 -65 l-15 -23 -51
21 c-28 12 -49 26 -46 32 4 11 140 210 156 228 4 4 27 3 52 -3 153 -39 274
127 193 266 -65 111 -235 110 -301 -1 -20 -36 -24 -54 -22 -102 l3 -58 -119
-64 c-93 -49 -120 -60 -127 -50 -14 22 14 632 31 690 14 51 51 102 83 117 38
18 65 0 108 -71 41 -69 82 -97 141 -97 90 0 147 73 133 170 -16 104 -145 163
-305 140z m-825 -656 c83 -39 95 -148 24 -209 -43 -35 -115 -35 -158 1 -55 46
-59 127 -9 182 41 44 88 52 143 26z m1100 2 c65 -28 94 -115 59 -176 -63 -106
-234 -62 -234 62 0 44 33 96 73 113 41 18 60 18 102 1z m-887 -280 l110 -60
-2 -65 c-2 -63 -3 -65 -35 -78 -18 -8 -37 -13 -42 -11 -5 2 -47 57 -93 123
-70 100 -82 122 -72 137 6 10 14 17 17 16 4 -2 56 -30 117 -62z m634 -91 c-48
-68 -93 -124 -100 -125 -7 0 -26 7 -42 15 -27 14 -30 21 -31 65 -1 28 -2 55
-3 61 -1 5 51 39 114 74 103 57 117 62 132 48 15 -13 9 -25 -70 -138z m-281
62 c39 -26 66 -89 55 -130 -20 -81 -119 -122 -189 -78 -63 39 -78 125 -30 181
46 55 108 65 164 27z m-206 -217 c17 -19 17 -21 -6 -55 -13 -19 -26 -35 -29
-35 -3 1 -17 19 -33 41 l-27 40 32 14 c43 18 42 18 63 -5z m332 8 c15 -7 30
-13 32 -15 4 -3 -47 -83 -53 -83 -3 0 -15 14 -27 31 -19 27 -20 34 -9 55 15
28 19 28 57 12z m-690 -25 c50 -23 80 -91 64 -144 -17 -56 -61 -89 -121 -89
-112 0 -165 125 -88 208 42 44 88 53 145 25z m1098 3 c19 -8 44 -30 55 -48 52
-86 -6 -189 -107 -188 -47 1 -78 17 -104 56 -39 59 -12 151 54 179 41 18 60
18 102 1z m-837 -61 c18 -25 32 -50 32 -56 0 -9 -34 -61 -61 -93 -5 -5 -31 1
-61 14 l-53 24 0 57 0 57 45 20 c25 11 50 20 56 21 5 1 25 -19 42 -44z m563
24 l49 -21 0 -58 0 -58 -42 -17 c-24 -9 -48 -19 -54 -22 -6 -2 -28 19 -48 46
l-38 51 23 32 c27 39 51 68 56 68 2 0 27 -10 54 -21z m-195 -101 c-16 -22 -16
-21 -16 22 0 43 0 44 16 22 14 -20 14 -24 0 -44z m-256 20 c-1 -26 -3 -30 -10
-16 -6 9 -7 23 -4 32 9 25 14 19 14 -16z m-29 -60 c21 -26 24 -51 8 -77 -11
-17 -13 -17 -51 1 l-39 19 28 39 c15 22 30 40 31 40 2 0 12 -10 23 -22z m362
-27 l18 -31 -35 -17 c-29 -13 -38 -14 -51 -3 -20 17 -19 36 6 71 23 33 33 30
62 -20z m-142 -54 c39 -26 66 -89 55 -130 -3 -15 -19 -41 -34 -58 -53 -59
-162 -48 -197 21 -61 118 68 240 176 167z m-277 -30 c28 -12 30 -16 32 -78 l2
-65 -113 -60 c-103 -53 -115 -57 -130 -44 -14 14 -7 28 71 138 47 67 91 122
97 122 7 -1 25 -7 41 -13z m518 -55 c25 -37 63 -90 83 -119 31 -43 35 -55 26
-72 -11 -19 -15 -17 -129 41 l-117 62 0 60 c0 57 2 62 30 78 17 9 37 17 45 18
8 0 36 -30 62 -68z m-805 -199 c50 -23 80 -91 64 -144 -17 -56 -61 -89 -121
-89 -112 0 -165 125 -88 208 42 44 88 53 145 25z m1098 3 c19 -8 44 -30 55
-48 52 -86 -6 -189 -107 -188 -47 1 -78 17 -104 56 -39 59 -12 151 54 179 41
18 60 18 102 1z"/>
<path d="M9994 2276 c-97 -19 -137 -32 -219 -75 -177 -92 -279 -271 -261 -463
10 -112 39 -173 120 -254 102 -100 169 -130 489 -215 223 -59 298 -90 350
-147 33 -38 37 -48 37 -98 0 -68 -19 -106 -72 -144 -92 -67 -266 -85 -407 -41
-61 19 -83 31 -126 74 -53 53 -85 121 -85 179 l0 28 -180 0 -180 0 0 -57 c0
-153 81 -303 214 -398 112 -79 217 -115 399 -135 198 -22 428 21 568 106 61
36 149 126 175 177 74 142 80 328 16 456 -15 30 -53 80 -84 111 -85 85 -181
128 -423 190 -400 102 -447 127 -447 240 0 132 139 210 327 183 141 -20 222
-85 245 -198 l11 -55 180 0 179 0 0 33 c0 64 -22 152 -53 217 -66 135 -213
238 -392 275 -108 23 -291 28 -381 11z"/>
<path d="M2180 1405 l0 -845 175 0 175 0 0 588 c0 323 4 580 9 572 4 -8 98
-273 207 -587 l199 -573 145 0 146 0 204 593 205 592 3 -592 2 -593 175 0 175
0 0 845 0 845 -263 0 -263 0 -184 -575 c-102 -316 -188 -571 -191 -567 -6 6
-389 1127 -389 1138 0 2 -119 4 -265 4 l-265 0 0 -845z"/>
<path d="M6490 1945 l0 -304 -47 50 c-126 135 -362 166 -552 73 -193 -95 -302
-304 -303 -579 -1 -338 161 -586 419 -640 185 -39 360 6 459 120 l44 50 0 -78
0 -77 160 0 160 0 0 845 0 845 -170 0 -170 0 0 -305z m-185 -396 c58 -16 136
-98 166 -174 20 -52 23 -78 23 -195 1 -105 -3 -146 -17 -186 -41 -118 -112
-188 -206 -203 -206 -33 -343 122 -343 389 0 159 40 263 127 332 58 45 163 61
250 37z"/>
<path d="M7120 1405 l0 -845 175 0 175 0 2 563 3 562 350 -563 349 -562 188 0
188 0 0 845 0 845 -175 0 -175 0 0 -562 c-1 -505 -2 -561 -16 -543 -8 11 -167
264 -352 562 l-337 543 -187 0 -188 0 0 -845z"/>
<path d="M8870 1405 l0 -845 190 0 190 0 -2 843 -3 842 -187 3 -188 2 0 -845z"/>
<path d="M4695 1806 c-152 -25 -235 -63 -316 -147 -59 -59 -90 -122 -103 -206
l-6 -43 169 0 170 0 11 42 c28 100 81 133 220 133 135 0 179 -28 201 -126 8
-33 6 -49 -8 -78 -26 -52 -91 -75 -288 -101 -184 -24 -260 -42 -330 -77 -136
-67 -197 -194 -175 -367 11 -88 40 -145 106 -206 79 -71 159 -95 314 -94 161
1 268 32 362 106 l36 28 12 -55 11 -55 174 0 174 0 -15 37 c-23 55 -33 239
-34 612 0 230 -4 346 -12 374 -17 55 -95 137 -161 170 -31 15 -84 34 -119 42
-90 21 -296 27 -393 11z m352 -749 c-3 -52 -11 -114 -18 -138 -17 -57 -92
-133 -145 -148 -55 -15 -178 -14 -218 3 -137 57 -115 250 34 295 23 7 93 21
156 32 62 10 128 25 146 33 18 8 37 15 42 15 5 1 7 -40 3 -92z"/>
</g>
</svg>
