<?xml version="1.0" standalone="no"?>
<!DOCTYPE svg PUBLIC "-//W3C//DTD SVG 20010904//EN"
 "http://www.w3.org/TR/2001/REC-SVG-20010904/DTD/svg10.dtd">
<svg version="1.0" xmlns="http://www.w3.org/2000/svg"
 width="512.000000pt" height="512.000000pt" viewBox="0 0 512.000000 512.000000"
 preserveAspectRatio="xMidYMid meet">
<metadata>
Created by potrace 1.11, written by Peter Selinger 2001-2013
</metadata>
<g transform="translate(0.000000,512.000000) scale(0.100000,-0.100000)"
fill="#000000" stroke="none">
<path d="M420 5109 c-199 -33 -377 -215 -410 -419 -14 -90 -14 -4170 0 -4260
33 -209 211 -387 420 -420 90 -14 4170 -14 4260 0 209 33 387 211 420 420 14
90 14 4170 0 4260 -33 209 -211 387 -420 420 -82 13 -4190 12 -4270 -1z m762
-1514 c226 -30 389 -98 503 -210 98 -97 147 -213 161 -381 12 -144 -20 -274
-96 -388 -59 -87 -139 -153 -249 -205 l-80 -37 90 -119 c104 -138 228 -323
322 -482 72 -122 137 -246 137 -263 0 -6 -57 -10 -157 -10 l-158 0 -65 117
c-83 149 -295 468 -397 598 l-78 100 -213 3 -212 2 -2 -407 -3 -408 -145 0
-145 0 -3 1027 -2 1026 47 10 c186 40 548 53 745 27z m1253 -102 c96 -547 322
-1564 353 -1595 15 -15 335 878 448 1250 l58 193 130 -3 129 -3 69 -224 c91
-294 413 -1189 437 -1214 19 -19 193 747 301 1323 33 179 63 335 65 348 5 22
8 22 155 22 83 0 150 -3 150 -7 0 -22 -90 -477 -141 -718 -99 -460 -244 -1006
-347 -1305 l-19 -55 -147 0 -148 0 -54 135 c-107 265 -274 719 -361 982 -48
147 -90 268 -93 268 -3 0 -38 -100 -78 -223 -105 -315 -407 -1120 -435 -1154
-7 -9 -49 -13 -149 -13 l-139 0 -14 33 c-52 125 -206 661 -279 972 -77 329
-216 1014 -216 1067 0 16 13 18 154 18 l154 0 17 -97z"/>
<path d="M728 3343 l-38 -4 0 -391 0 -391 207 7 c239 8 324 18 410 48 132 46
204 133 223 270 25 177 -37 320 -169 391 -95 52 -186 69 -401 72 -107 2 -212
1 -232 -2z"/>
</g>
</svg>
